<?xml version="1.0" encoding="UTF-8"?>
<svg id="Calque_1" xmlns="http://www.w3.org/2000/svg" version="1.1" viewBox="0 0 468.52 373.13">
  <!-- Generator: Adobe Illustrator 30.6.0, SVG Export Plug-In . SVG Version: 2.1.4 Build 109)  -->
  <defs>
    <style>
      .st0 {
        fill: blue;
      }
    </style>
  </defs>
  <path class="st0" d="M164.67,108.18c-5.19-16.64-1.3-35.15,7.22-50.36,8.52-15.21,21.3-27.58,34.62-38.83,8.26-6.98,17.04-13.75,27.33-17.07s22.46-2.63,30.79,4.27c7.01,5.81,10.25,14.93,12.61,23.73,8.61,32.09,7.61,71-17.38,92.9,22.55-9.94,46.94-15.72,71.55-16.96,46.1-2.32,95.35,13.43,123.18,50.25,7.39,9.78,13.24,21.23,13.86,33.47s-4.87,25.28-15.6,31.21c-6.34,3.5-13.77,4.27-20.97,4.98-40.82,4-85.39,7.12-119.42-15.78,10.82,18.35,21.95,37.69,22.77,58.98.7,18.07-6.15,35.52-13.68,51.96-6.64,14.5-14.26,29.18-26.72,39.13-26.04,20.8-65.28,14.4-93.78-2.87-7-4.24-13.82-9.23-18.18-16.15-4.26-6.76-5.84-14.81-7.24-22.67-3.03-17.02-5.61-34.12-7.72-51.27-39.39,14.66-81.84,21.02-123.8,18.55-7.77-.46-15.78-1.29-22.59-5.06-11.83-6.56-17.47-20.5-20.02-33.79-2.2-11.47-2.62-23.91,2.78-34.27,5.67-10.88,16.84-17.76,28.15-22.5,25.15-10.53,53.64-12.91,80.2-6.7-7.66-9.36-15.11-18.9-22.34-28.6-14.34-19.26-28.01-39.58-34.91-62.58-6.9-23-6.26-49.29,6.74-69.48,2.7-4.19,6-8.17,10.38-10.55,7.54-4.1,17.11-2.74,24.67,1.32s13.54,10.48,19.37,16.78c12.1,13.07,24.2,26.15,36.3,39.22,6.38,6.89,13.17,14.86,12.76,24.24"/>
  <ellipse cx="215.21" cy="186.56" rx="63.64" ry="53.98"/>
</svg>